# xmcd CD database file
#
# Track frame offsets:
#	150
#	20400
#	39075
#	54300
#	68250
#	94275
#	113550
#	133725
#	150750
#	164100
#	188550
#
# Disc length: 2786 seconds
#
# Revision: 1
# Processed by: cddbd v1.5.1PL2 Copyright (c) Steve Scherf et al.
# Submitted via: CDex 1.51
#
DISCID=7b0ae00b
DTITLE=Breaking Benjamin - 2004-10-16-The Roxy-Hollywood, CA
DYEAR=2004
DGENRE=Blues
TTITLE0=Home
TTITLE1=Wish I May
TTITLE2=Away
TTITLE3=Polyamorous
TTITLE4=Water
TTITLE5=Lithium
TTITLE6=Breakdown
TTITLE7=Medicate
TTITLE8=Firefly
TTITLE9=Simple Design
TTITLE10=So Cold
EXTD=YEAR: 2004
EXTT0=
EXTT1=
EXTT2=
EXTT3=
EXTT4=
EXTT5=
EXTT6=
EXTT7=
EXTT8=
EXTT9=
EXTT10=
PLAYORDER=
